<svg width="26" height="26" viewBox="0 0 26 26" fill="none" xmlns="http://www.w3.org/2000/svg">
<path d="M14.5066 11.6797C14.5831 12.0307 14.6652 12.3604 14.7576 12.6689C15.0651 13.6967 15.4917 14.5561 16.1677 15.2383C16.9889 16.0669 18.0871 16.5345 19.488 16.8467C18.0872 17.1589 16.9889 17.6265 16.1677 18.4551C15.4918 19.1372 15.0651 19.9968 14.7576 21.0244C14.6615 21.3454 14.5759 21.6895 14.4968 22.0566C14.4162 21.6947 14.33 21.356 14.2332 21.04C13.921 20.0216 13.4925 19.1745 12.8181 18.501C12.1432 17.8269 11.2981 17.4029 10.2859 17.0977C10.0116 17.0149 9.7204 16.9398 9.41187 16.8701C10.8643 16.558 11.9992 16.0892 12.8425 15.2393C13.519 14.5575 13.9461 13.6979 14.2546 12.6699C14.3473 12.3611 14.4298 12.031 14.5066 11.6797ZM22.4441 16.3975H22.4412C22.4435 16.3972 22.4457 16.3967 22.448 16.3965L22.4441 16.3975ZM7.11597 8.14941C7.2289 8.36262 7.37032 8.5646 7.55347 8.74609C7.76574 8.95637 8.00495 9.11164 8.25854 9.23145C8.00973 9.35115 7.77451 9.5031 7.56519 9.70605C7.39406 9.872 7.25917 10.0549 7.14917 10.248C7.03714 10.0399 6.89838 9.84279 6.71851 9.66504C6.49825 9.44747 6.24835 9.28806 5.98413 9.16504C6.23604 9.04772 6.47603 8.89902 6.68921 8.69727C6.86537 8.5305 7.00293 8.34533 7.11597 8.14941ZM12.4363 3.11523C12.4703 3.15099 12.5052 3.18479 12.5408 3.2168C12.5001 3.25211 12.4604 3.28996 12.4216 3.33008C12.4097 3.34246 12.398 3.35562 12.3865 3.36816C12.3765 3.35742 12.3675 3.34557 12.3572 3.33496C12.3182 3.29501 12.2779 3.2578 12.2371 3.22266C12.2756 3.18824 12.3136 3.15209 12.3503 3.11328C12.3652 3.0976 12.3782 3.08039 12.3923 3.06445C12.4071 3.08109 12.4207 3.09889 12.4363 3.11523Z" stroke="#666666" stroke-width="2"/>
</svg>
