<svg width="24" height="24" viewBox="0 0 24 24" fill="none" xmlns="http://www.w3.org/2000/svg">
<path d="M21.5784 6.30087L8.63266 19.7856C8.55752 19.8639 8.46828 19.9261 8.37006 19.9685C8.27184 20.0109 8.16655 20.0328 8.06022 20.0328C7.95389 20.0328 7.8486 20.0109 7.75038 19.9685C7.65216 19.9261 7.56292 19.8639 7.48778 19.7856L1.82403 13.886C1.67221 13.7279 1.58691 13.5134 1.58691 13.2897C1.58691 13.0661 1.67221 12.8516 1.82403 12.6935C1.97585 12.5353 2.18176 12.4465 2.39647 12.4465C2.61118 12.4465 2.81709 12.5353 2.96891 12.6935L8.06022 17.9978L20.4335 5.10831C20.5853 4.95017 20.7912 4.86133 21.0059 4.86133C21.2206 4.86133 21.4266 4.95017 21.5784 5.10831C21.7302 5.26646 21.8155 5.48094 21.8155 5.70459C21.8155 5.92824 21.7302 6.14273 21.5784 6.30087Z" fill="white" stroke="#EEEDFC" stroke-width="0.5"/>
</svg>
