<svg width="50" height="51" viewBox="0 0 50 51" fill="none" xmlns="http://www.w3.org/2000/svg">
<mask id="path-1-outside-1_9801_2564" maskUnits="userSpaceOnUse" x="-0.925781" y="0.353516" width="51" height="50" fill="black">
<rect fill="white" x="-0.925781" y="0.353516" width="51" height="50"/>
<path fill-rule="evenodd" clip-rule="evenodd" d="M24.0952 1.92862C24.4551 1.16181 25.5458 1.16182 25.9057 1.92862L32.4992 15.9759C32.6409 16.2778 32.9237 16.4892 33.2534 16.5396L48.0767 18.8044C48.8812 18.9273 49.2098 19.9087 48.6414 20.4913L37.8529 31.5486C37.6313 31.7758 37.5306 32.0947 37.5817 32.4079L40.1198 47.9676C40.2542 48.7914 39.3796 49.4076 38.649 49.0037L25.4842 41.7264C25.1832 41.56 24.8177 41.56 24.5167 41.7264L11.3519 49.0037C10.6213 49.4076 9.74675 48.7914 9.88113 47.9676L12.4192 32.4079C12.4703 32.0947 12.3697 31.7758 12.148 31.5486L1.35953 20.4913C0.791119 19.9087 1.11965 18.9273 1.92425 18.8044L16.7475 16.5396C17.0772 16.4892 17.3601 16.2778 17.5018 15.9759L24.0952 1.92862Z"/>
</mask>
<path fill-rule="evenodd" clip-rule="evenodd" d="M24.0952 1.92862C24.4551 1.16181 25.5458 1.16182 25.9057 1.92862L32.4992 15.9759C32.6409 16.2778 32.9237 16.4892 33.2534 16.5396L48.0767 18.8044C48.8812 18.9273 49.2098 19.9087 48.6414 20.4913L37.8529 31.5486C37.6313 31.7758 37.5306 32.0947 37.5817 32.4079L40.1198 47.9676C40.2542 48.7914 39.3796 49.4076 38.649 49.0037L25.4842 41.7264C25.1832 41.56 24.8177 41.56 24.5167 41.7264L11.3519 49.0037C10.6213 49.4076 9.74675 48.7914 9.88113 47.9676L12.4192 32.4079C12.4703 32.0947 12.3697 31.7758 12.148 31.5486L1.35953 20.4913C0.791119 19.9087 1.11965 18.9273 1.92425 18.8044L16.7475 16.5396C17.0772 16.4892 17.3601 16.2778 17.5018 15.9759L24.0952 1.92862Z" fill="white"/>
<path d="M16.7475 16.5396L16.5965 15.5511L16.7475 16.5396ZM17.5018 15.9759L16.5965 15.5511L17.5018 15.9759ZM1.35953 20.4913L0.643775 21.1896L1.35953 20.4913ZM1.92425 18.8044L1.77322 17.8158L1.92425 18.8044ZM12.148 31.5486L11.4322 32.247L12.148 31.5486ZM11.3519 49.0037L11.8357 49.8789L11.3519 49.0037ZM9.88113 47.9676L8.89418 47.8066L9.88113 47.9676ZM25.4842 41.7264L25.0005 42.6016L25.4842 41.7264ZM24.5167 41.7264L25.0005 42.6016L24.5167 41.7264ZM40.1198 47.9676L39.1328 48.1285L40.1198 47.9676ZM38.649 49.0037L38.1652 49.8789L38.649 49.0037ZM37.5817 32.4079L38.5687 32.247L37.5817 32.4079ZM48.6414 20.4913L47.9256 19.7929L48.6414 20.4913ZM32.4992 15.9759L31.5939 16.4008L32.4992 15.9759ZM33.2534 16.5396L33.1023 17.5281L33.2534 16.5396ZM25.9057 1.92862L26.8109 1.50372L25.9057 1.92862ZM24.0952 1.92862L25.0005 2.35352L24.0952 1.92862ZM25.9057 1.92862L25.0005 2.35352L31.5939 16.4008L32.4992 15.9759L33.4044 15.5511L26.8109 1.50372L25.9057 1.92862ZM33.2534 16.5396L33.1023 17.5281L47.9256 19.7929L48.0767 18.8044L48.2277 17.8158L33.4044 15.5511L33.2534 16.5396ZM48.6414 20.4913L47.9256 19.7929L37.1371 30.8502L37.8529 31.5486L38.5687 32.247L49.3571 21.1896L48.6414 20.4913ZM37.5817 32.4079L36.5947 32.5689L39.1328 48.1285L40.1198 47.9676L41.1067 47.8066L38.5687 32.247L37.5817 32.4079ZM38.649 49.0037L39.1328 48.1285L25.968 40.8512L25.4842 41.7264L25.0005 42.6016L38.1652 49.8789L38.649 49.0037ZM24.5167 41.7264L24.0329 40.8512L10.8681 48.1285L11.3519 49.0037L11.8357 49.8789L25.0005 42.6016L24.5167 41.7264ZM9.88113 47.9676L10.8681 48.1285L13.4062 32.5689L12.4192 32.4079L11.4322 32.247L8.89418 47.8066L9.88113 47.9676ZM12.148 31.5486L12.8638 30.8502L2.07529 19.7929L1.35953 20.4913L0.643775 21.1896L11.4322 32.247L12.148 31.5486ZM1.92425 18.8044L2.07529 19.7929L16.8986 17.5281L16.7475 16.5396L16.5965 15.5511L1.77322 17.8158L1.92425 18.8044ZM17.5018 15.9759L18.407 16.4008L25.0005 2.35352L24.0952 1.92862L23.19 1.50372L16.5965 15.5511L17.5018 15.9759ZM16.7475 16.5396L16.8986 17.5281C17.5579 17.4274 18.1236 17.0046 18.407 16.4008L17.5018 15.9759L16.5965 15.5511V15.5511L16.7475 16.5396ZM1.35953 20.4913L2.07529 19.7929L2.07529 19.7929L1.92425 18.8044L1.77322 17.8158C0.164021 18.0617 -0.493046 20.0245 0.643775 21.1896L1.35953 20.4913ZM12.4192 32.4079L13.4062 32.5689C13.5084 31.9424 13.3071 31.3046 12.8638 30.8502L12.148 31.5486L11.4322 32.247V32.247L12.4192 32.4079ZM11.3519 49.0037L10.8681 48.1285V48.1285L9.88113 47.9676L8.89418 47.8066C8.6254 49.4543 10.3745 50.6866 11.8357 49.8789L11.3519 49.0037ZM25.4842 41.7264L25.968 40.8512C25.3659 40.5184 24.635 40.5184 24.0329 40.8512L24.5167 41.7264L25.0005 42.6016H25.0005L25.4842 41.7264ZM40.1198 47.9676L39.1328 48.1285V48.1285L38.649 49.0037L38.1652 49.8789C39.6264 50.6866 41.3755 49.4543 41.1067 47.8066L40.1198 47.9676ZM37.8529 31.5486L37.1371 30.8502C36.6938 31.3046 36.4926 31.9424 36.5947 32.5689L37.5817 32.4079L38.5687 32.247V32.247L37.8529 31.5486ZM48.0767 18.8044L47.9256 19.7929V19.7929L48.6414 20.4913L49.3571 21.1896C50.494 20.0244 49.8369 18.0617 48.2277 17.8158L48.0767 18.8044ZM32.4992 15.9759L31.5939 16.4008C31.8773 17.0046 32.443 17.4274 33.1023 17.5281L33.2534 16.5396L33.4044 15.5511V15.5511L32.4992 15.9759ZM25.9057 1.92862L26.8109 1.50372C26.0911 -0.0298833 23.9098 -0.029889 23.19 1.50372L24.0952 1.92862L25.0005 2.35352V2.35352L25.9057 1.92862Z" fill="#D1D1D1" mask="url(#path-1-outside-1_9801_2564)"/>
</svg>
