<svg width="26" height="26" viewBox="0 0 26 26" fill="none" xmlns="http://www.w3.org/2000/svg">
<path d="M23.719 14.4454C23.6147 14.3409 23.484 14.2668 23.3409 14.231C23.1978 14.1953 23.0476 14.1991 22.9065 14.2422C21.3572 14.7106 19.7099 14.7499 18.1401 14.3559C16.5702 13.9618 15.1367 13.1493 13.9923 12.0049C12.8478 10.8604 12.0353 9.42688 11.6413 7.85706C11.2473 6.28724 11.2865 4.63993 11.7549 3.09067C11.7984 2.9495 11.8025 2.79915 11.7669 2.65579C11.7313 2.51243 11.6573 2.38149 11.5529 2.27704C11.4484 2.17259 11.3175 2.09859 11.1741 2.063C11.0308 2.02741 10.8804 2.03157 10.7393 2.07504C8.59734 2.73118 6.71692 4.04616 5.3656 5.83285C4.18383 7.40185 3.46298 9.26929 3.28404 11.2254C3.1051 13.1815 3.47515 15.1487 4.35262 16.9061C5.2301 18.6635 6.58022 20.1414 8.25133 21.1737C9.92243 22.206 11.8483 22.752 13.8125 22.7501C16.1042 22.7572 18.3348 22.0122 20.1622 20.6295C21.9489 19.2782 23.2639 17.3977 23.92 15.2558C23.963 15.1152 23.967 14.9655 23.9316 14.8228C23.8962 14.68 23.8227 14.5496 23.719 14.4454ZM19.1852 19.3315C17.4643 20.6277 15.333 21.2587 13.1838 21.1082C11.0346 20.9577 9.0121 20.0359 7.4886 18.5125C5.96509 16.9891 5.04315 14.9667 4.89249 12.8175C4.74183 10.6683 5.37258 8.53702 6.66864 6.81598C7.51304 5.70088 8.60469 4.79696 9.85771 4.17535C9.78633 4.67629 9.75035 5.18163 9.75005 5.68762C9.75301 8.48806 10.8668 11.173 12.847 13.1532C14.8272 15.1334 17.5121 16.2472 20.3125 16.2501C20.8196 16.25 21.3259 16.214 21.8279 16.1425C21.2057 17.3957 20.301 18.4874 19.1852 19.3315Z" fill="#525252"/>
</svg>
