<svg width="50" height="51" viewBox="0 0 50 51" fill="none" xmlns="http://www.w3.org/2000/svg">
<mask id="path-1-outside-1_9801_2564" maskUnits="userSpaceOnUse" x="-0.925781" y="0.353516" width="51" height="50" fill="black">
<rect fill="white" x="-0.925781" y="0.353516" width="51" height="50"/>
<path fill-rule="evenodd" clip-rule="evenodd" d="M24.0952 1.92862C24.4551 1.16181 25.5458 1.16182 25.9057 1.92862L32.4992 15.9759C32.6409 16.2778 32.9237 16.4892 33.2534 16.5396L48.0767 18.8044C48.8812 18.9273 49.2098 19.9087 48.6414 20.4913L37.8529 31.5486C37.6313 31.7758 37.5306 32.0947 37.5817 32.4079L40.1198 47.9676C40.2542 48.7914 39.3796 49.4076 38.649 49.0037L25.4842 41.7264C25.1832 41.56 24.8177 41.56 24.5167 41.7264L11.3519 49.0037C10.6213 49.4076 9.74675 48.7914 9.88113 47.9676L12.4192 32.4079C12.4703 32.0947 12.3697 31.7758 12.148 31.5486L1.35953 20.4913C0.791119 19.9087 1.11965 18.9273 1.92425 18.8044L16.7475 16.5396C17.0772 16.4892 17.3601 16.2778 17.5018 15.9759L24.0952 1.92862Z"/>
</mask>
<path fill-rule="evenodd" clip-rule="evenodd" d="M24.0952 1.92862C24.4551 1.16181 25.5458 1.16182 25.9057 1.92862L32.4992 15.9759C32.6409 16.2778 32.9237 16.4892 33.2534 16.5396L48.0767 18.8044C48.8812 18.9273 49.2098 19.9087 48.6414 20.4913L37.8529 31.5486C37.6313 31.7758 37.5306 32.0947 37.5817 32.4079L40.1198 47.9676C40.2542 48.7914 39.3796 49.4076 38.649 49.0037L25.4842 41.7264C25.1832 41.56 24.8177 41.56 24.5167 41.7264L11.3519 49.0037C10.6213 49.4076 9.74675 48.7914 9.88113 47.9676L12.4192 32.4079C12.4703 32.0947 12.3697 31.7758 12.148 31.5486L1.35953 20.4913C0.791119 19.9087 1.11965 18.9273 1.92425 18.8044L16.7475 16.5396C17.0772 16.4892 17.3601 16.2778 17.5018 15.9759L24.0952 1.92862Z" fill="#F4A316"/>
</svg>
