<svg width="50" height="50" viewBox="0 0 50 50" fill="none" xmlns="http://www.w3.org/2000/svg">
<path d="M32.4993 15.976C32.641 16.2779 32.9239 16.4893 33.2535 16.5396L48.0767 18.8047C48.8813 18.9277 49.2098 19.909 48.6414 20.4916L37.8529 31.549C37.6313 31.7761 37.5306 32.0951 37.5817 32.4083L40.1201 47.9676C40.2545 48.7914 39.3799 49.4076 38.6493 49.0038L25.4843 41.7265C25.1832 41.56 24.8178 41.56 24.5167 41.7265L11.3516 49.0038C10.621 49.4076 9.74648 48.7914 9.88089 47.9676L12.4192 32.4083C12.4703 32.0951 12.3697 31.7761 12.148 31.549L1.35953 20.4916C0.791125 19.909 1.11965 18.9277 1.92423 18.8047L16.7474 16.5396C17.0771 16.4893 17.3599 16.2779 17.5016 15.976L24.0952 1.92861C24.4552 1.16182 25.5458 1.16182 25.9057 1.92861L32.4993 15.976Z" fill="#F4A316"/>
</svg>
