<svg width="46" height="47" viewBox="0 0 46 47" fill="none" xmlns="http://www.w3.org/2000/svg">
<mask id="path-1-outside-1_1409_6275" maskUnits="userSpaceOnUse" x="-0.92627" y="0.353516" width="47" height="46" fill="black">
<rect fill="white" x="-0.92627" y="0.353516" width="47" height="46"/>
<path d="M22.0947 1.92862C22.4546 1.16182 23.5453 1.16181 23.9052 1.92862L29.8806 14.6592C30.0223 14.9611 30.3052 15.1725 30.6348 15.2229L44.0762 17.2765C44.8808 17.3994 45.2093 18.3808 44.6409 18.9634L34.8524 28.9958C34.6308 29.223 34.5301 29.5419 34.5812 29.8552L36.8832 43.9675C37.0176 44.7914 36.143 45.4076 35.4125 45.0037L23.4838 38.4097C23.1827 38.2433 22.8172 38.2433 22.5162 38.4097L10.5875 45.0037C9.85689 45.4076 8.98233 44.7914 9.11671 43.9675L11.4187 29.8552C11.4698 29.5419 11.3692 29.223 11.1475 28.9958L1.35904 18.9634C0.79063 18.3808 1.11917 17.3994 1.92376 17.2765L15.3651 15.2229C15.6947 15.1725 15.9776 14.9611 16.1193 14.6592L22.0947 1.92862Z"/>
</mask>
<path d="M22.0947 1.92862C22.4546 1.16182 23.5453 1.16181 23.9052 1.92862L29.8806 14.6592C30.0223 14.9611 30.3052 15.1725 30.6348 15.2229L44.0762 17.2765C44.8808 17.3994 45.2093 18.3808 44.6409 18.9634L34.8524 28.9958C34.6308 29.223 34.5301 29.5419 34.5812 29.8552L36.8832 43.9675C37.0176 44.7914 36.143 45.4076 35.4125 45.0037L23.4838 38.4097C23.1827 38.2433 22.8172 38.2433 22.5162 38.4097L10.5875 45.0037C9.85689 45.4076 8.98233 44.7914 9.11671 43.9675L11.4187 29.8552C11.4698 29.5419 11.3692 29.223 11.1475 28.9958L1.35904 18.9634C0.79063 18.3808 1.11917 17.3994 1.92376 17.2765L15.3651 15.2229C15.6947 15.1725 15.9776 14.9611 16.1193 14.6592L22.0947 1.92862Z" fill="white"/>
<path d="M15.3651 15.2229L15.5161 16.2114L15.3651 15.2229ZM1.92376 17.2765L1.77273 16.288L1.92376 17.2765ZM11.1475 28.9958L11.8633 28.2975L11.1475 28.9958ZM10.5875 45.0037L10.1037 44.1285L10.5875 45.0037ZM9.11671 43.9675L8.12976 43.8066L9.11671 43.9675ZM23.4838 38.4097L23.9675 37.5345L23.4838 38.4097ZM22.5162 38.4097L22.0324 37.5345L22.5162 38.4097ZM36.8832 43.9675L35.8963 44.1285L36.8832 43.9675ZM35.4125 45.0037L34.9287 45.8789L35.4125 45.0037ZM34.8524 28.9958L35.5682 29.6942L34.8524 28.9958ZM34.5812 29.8552L35.5682 29.6942L34.5812 29.8552ZM44.0762 17.2765L44.2272 16.288L44.0762 17.2765ZM44.6409 18.9634L43.9251 18.265L44.6409 18.9634ZM30.6348 15.2229L30.4838 16.2114L30.6348 15.2229ZM22.0947 1.92862L21.1895 1.50372L22.0947 1.92862ZM23.9052 1.92862L23 2.35352L28.9754 15.0841L29.8806 14.6592L30.7859 14.2343L24.8104 1.50372L23.9052 1.92862ZM30.6348 15.2229L30.4838 16.2114L43.9251 18.265L44.0762 17.2765L44.2272 16.288L30.7859 14.2343L30.6348 15.2229ZM44.6409 18.9634L43.9251 18.265L34.1367 28.2975L34.8524 28.9958L35.5682 29.6942L45.3566 19.6617L44.6409 18.9634ZM34.5812 29.8552L33.5943 30.0161L35.8963 44.1285L36.8832 43.9675L37.8702 43.8066L35.5682 29.6942L34.5812 29.8552ZM35.4125 45.0037L35.8963 44.1285L23.9675 37.5345L23.4838 38.4097L23 39.2849L34.9287 45.8789L35.4125 45.0037ZM22.5162 38.4097L22.0324 37.5345L10.1037 44.1285L10.5875 45.0037L11.0712 45.8789L23 39.2849L22.5162 38.4097ZM9.11671 43.9675L10.1037 44.1285L12.4057 30.0161L11.4187 29.8552L10.4318 29.6942L8.12976 43.8066L9.11671 43.9675ZM11.1475 28.9958L11.8633 28.2975L2.0748 18.265L1.35904 18.9634L0.643287 19.6617L10.4318 29.6942L11.1475 28.9958ZM1.92376 17.2765L2.0748 18.265L15.5161 16.2114L15.3651 15.2229L15.2141 14.2343L1.77273 16.288L1.92376 17.2765ZM16.1193 14.6592L17.0245 15.0841L23 2.35352L22.0947 1.92862L21.1895 1.50372L15.2141 14.2343L16.1193 14.6592ZM15.3651 15.2229L15.5161 16.2114C16.1754 16.1107 16.7411 15.6879 17.0245 15.0841L16.1193 14.6592L15.2141 14.2343V14.2343L15.3651 15.2229ZM1.35904 18.9634L2.0748 18.265H2.0748L1.92376 17.2765L1.77273 16.288C0.163538 16.5338 -0.493538 18.4966 0.643287 19.6617L1.35904 18.9634ZM11.4187 29.8552L12.4057 30.0161C12.5079 29.3896 12.3066 28.7518 11.8633 28.2975L11.1475 28.9958L10.4318 29.6942V29.6942L11.4187 29.8552ZM10.5875 45.0037L10.1037 44.1285H10.1037L9.11671 43.9675L8.12976 43.8066C7.86098 45.4543 9.61012 46.6866 11.0712 45.8789L10.5875 45.0037ZM23.4838 38.4097L23.9675 37.5345C23.3654 37.2017 22.6345 37.2017 22.0324 37.5345L22.5162 38.4097L23 39.2849H23L23.4838 38.4097ZM36.8832 43.9675L35.8963 44.1285V44.1285L35.4125 45.0037L34.9287 45.8789C36.3898 46.6866 38.139 45.4543 37.8702 43.8066L36.8832 43.9675ZM34.8524 28.9958L34.1367 28.2975C33.6934 28.7518 33.4921 29.3896 33.5943 30.0161L34.5812 29.8552L35.5682 29.6942V29.6942L34.8524 28.9958ZM44.0762 17.2765L43.9251 18.265H43.9251L44.6409 18.9634L45.3566 19.6617C46.4935 18.4966 45.8364 16.5338 44.2272 16.288L44.0762 17.2765ZM29.8806 14.6592L28.9754 15.0841C29.2588 15.6879 29.8245 16.1107 30.4838 16.2114L30.6348 15.2229L30.7859 14.2343V14.2343L29.8806 14.6592ZM23.9052 1.92862L24.8104 1.50372C24.0906 -0.0298872 21.9093 -0.0298851 21.1895 1.50372L22.0947 1.92862L23 2.35352L23 2.35352L23.9052 1.92862Z" fill="#D1D1D1" mask="url(#path-1-outside-1_1409_6275)"/>
<path d="M10.5875 45.0036L22.5162 38.4096C22.6623 38.3288 22.8237 38.2872 22.9855 38.2849V1.35352C22.6277 1.35855 22.2723 1.55022 22.0947 1.92852L16.1193 14.6591C15.9776 14.961 15.6947 15.1724 15.3651 15.2228L1.92376 17.2764C1.11917 17.3993 0.79063 18.3807 1.35904 18.9633L11.1475 28.9957C11.3692 29.2229 11.4698 29.5418 11.4187 29.8551L9.11671 43.9674C8.98233 44.7913 9.85689 45.4075 10.5875 45.0036Z" fill="#F4A316"/>
</svg>
