<svg width="28" height="28" viewBox="0 0 28 28" fill="none" xmlns="http://www.w3.org/2000/svg">
<path d="M1.60083 13.9998C1.60083 7.15163 7.15187 1.60059 14.0001 1.60059C20.8483 1.60059 26.3993 7.15163 26.3993 13.9998C26.3993 20.848 20.8483 26.399 14.0001 26.399C7.15187 26.399 1.60083 20.848 1.60083 13.9998ZM11.7746 11.885C11.7746 11.1486 12.0378 10.6692 12.3761 10.3653C12.7309 10.0461 13.2281 9.86674 13.7559 9.86674C14.2837 9.86674 14.7809 10.0448 15.1357 10.3653C15.4727 10.6692 15.736 11.1486 15.736 11.885C15.736 12.9812 15.0187 14.1372 13.8411 15.3237C12.9611 16.2113 11.9539 16.9934 11.0497 17.6942C10.7614 17.918 10.4859 18.1342 10.2231 18.3427C10.0689 18.4664 9.95702 18.6348 9.90278 18.8249C9.84854 19.0149 9.85464 19.217 9.92026 19.4034C9.98588 19.5898 10.1078 19.7512 10.2691 19.8653C10.4304 19.9794 10.6232 20.0406 10.8208 20.0405H17.1794C17.4323 20.0405 17.6749 19.94 17.8538 19.7611C18.0326 19.5822 18.1331 19.3396 18.1331 19.0867C18.1331 18.8337 18.0326 18.5911 17.8538 18.4123C17.6749 18.2334 17.4323 18.1329 17.1794 18.1329H13.5677C14.1183 17.6789 14.6817 17.1855 15.1955 16.6666C16.4443 15.4076 17.6435 13.7785 17.6435 11.885C17.6435 10.6387 17.173 9.63402 16.4112 8.94729C15.6647 8.27582 14.6957 7.95917 13.7559 7.95917C12.8161 7.95917 11.8458 8.27582 11.0993 8.94729C10.3362 9.63402 9.86698 10.6387 9.86698 11.885C9.86698 12.1379 9.96747 12.3805 10.1463 12.5594C10.3252 12.7383 10.5678 12.8387 10.8208 12.8387C11.0737 12.8387 11.3163 12.7383 11.4952 12.5594C11.6741 12.3805 11.7746 12.1379 11.7746 11.885Z" fill="#0A0836"/>
</svg>
