<svg width="28" height="28" viewBox="0 0 28 28" fill="none" xmlns="http://www.w3.org/2000/svg">
<path d="M7.06405 10.7603C6.99188 10.6983 6.90699 10.6499 6.81421 10.6177C6.72143 10.5855 6.62259 10.5703 6.52333 10.5729C6.42408 10.5754 6.32634 10.5957 6.23571 10.6326C6.14509 10.6695 6.06334 10.7222 5.99514 10.7878C5.92694 10.8534 5.87362 10.9306 5.83823 11.0149C5.80284 11.0992 5.78607 11.189 5.78888 11.2792C5.79168 11.3695 5.81402 11.4583 5.85459 11.5407C5.89517 11.623 5.9532 11.6973 6.02538 11.7593L12.829 17.5993C12.9693 17.7199 13.1551 17.7871 13.3483 17.7871C13.5414 17.7871 13.7273 17.7199 13.8676 17.5993L20.672 11.7593C20.7457 11.6977 20.8053 11.6234 20.8472 11.5408C20.8891 11.4581 20.9125 11.3687 20.916 11.2777C20.9196 11.1868 20.9032 11.0961 20.8679 11.0109C20.8325 10.9257 20.7789 10.8478 20.7102 10.7816C20.6414 10.7154 20.5589 10.6623 20.4674 10.6254C20.3758 10.5885 20.2771 10.5684 20.177 10.5664C20.0769 10.5645 19.9773 10.5806 19.8841 10.6139C19.7909 10.6471 19.7059 10.6969 19.634 10.7603L13.3483 16.1551L7.06405 10.7603Z" fill="#130E67"/>
</svg>
