<svg width="26" height="26" viewBox="0 0 26 26" fill="none" xmlns="http://www.w3.org/2000/svg">
<g clip-path="url(#clip0_9801_761)">
<path d="M11.9082 16.0383C12.9971 15.3133 13.8239 14.2572 14.2662 13.026C14.7084 11.7948 14.7428 10.454 14.3641 9.20182C13.9854 7.94963 13.2138 6.85254 12.1633 6.07281C11.1129 5.29307 9.83944 4.87207 8.53124 4.87207C7.22304 4.87207 5.94956 5.29307 4.89913 6.07281C3.8487 6.85254 3.07709 7.94963 2.69839 9.20182C2.3197 10.454 2.35403 11.7948 2.79631 13.026C3.23859 14.2572 4.06533 15.3133 5.15429 16.0383C3.18447 16.7643 1.50221 18.1078 0.358505 19.8682C0.298396 19.9576 0.256644 20.0579 0.235677 20.1636C0.214709 20.2692 0.214944 20.3779 0.236367 20.4834C0.257791 20.589 0.299976 20.6892 0.36047 20.7782C0.420964 20.8673 0.498561 20.9435 0.58875 21.0023C0.678939 21.0611 0.779921 21.1015 0.885826 21.1209C0.991731 21.1404 1.10045 21.1386 1.20565 21.1156C1.31086 21.0927 1.41046 21.0491 1.49866 20.9873C1.58687 20.9256 1.66191 20.8469 1.71944 20.7559C2.45718 19.6212 3.46668 18.6888 4.65626 18.0433C5.84584 17.3978 7.17782 17.0598 8.53124 17.0598C9.88466 17.0598 11.2166 17.3978 12.4062 18.0433C13.5958 18.6888 14.6053 19.6212 15.343 20.7559C15.4622 20.933 15.6463 21.0561 15.8555 21.0986C16.0647 21.141 16.2822 21.0995 16.461 20.9828C16.6398 20.8662 16.7656 20.6839 16.811 20.4753C16.8565 20.2668 16.818 20.0487 16.704 19.8682C15.5603 18.1078 13.878 16.7643 11.9082 16.0383ZM4.06249 10.9683C4.06249 10.0845 4.32458 9.22047 4.81561 8.48559C5.30664 7.75071 6.00456 7.17794 6.82112 6.83971C7.63768 6.50148 8.5362 6.41298 9.40305 6.58541C10.2699 6.75784 11.0662 7.18344 11.6911 7.80841C12.3161 8.43337 12.7417 9.22963 12.9141 10.0965C13.0865 10.9633 12.9981 11.8619 12.6598 12.6784C12.3216 13.495 11.7488 14.1929 11.0139 14.6839C10.2791 15.175 9.41507 15.437 8.53124 15.437C7.34647 15.4357 6.2106 14.9645 5.37284 14.1267C4.53508 13.2889 4.06383 12.1531 4.06249 10.9683ZM25.4048 20.9925C25.2244 21.1102 25.0045 21.1514 24.7937 21.107C24.5828 21.0626 24.3983 20.9363 24.2805 20.7559C23.5437 19.6205 22.5343 18.6877 21.3445 18.0425C20.1547 17.3973 18.8222 17.0602 17.4687 17.062C17.2533 17.062 17.0466 16.9764 16.8942 16.8241C16.7418 16.6717 16.6562 16.465 16.6562 16.2495C16.6562 16.0341 16.7418 15.8274 16.8942 15.675C17.0466 15.5226 17.2533 15.437 17.4687 15.437C18.1268 15.4364 18.7767 15.2905 19.3718 15.0096C19.967 14.7287 20.4927 14.3198 20.9115 13.8122C21.3303 13.3046 21.6319 12.7107 21.7946 12.0731C21.9573 11.4354 21.9771 10.7697 21.8527 10.1234C21.7283 9.47722 21.4627 8.86645 21.0748 8.33477C20.687 7.8031 20.1865 7.36364 19.6092 7.04781C19.0318 6.73198 18.3918 6.54756 17.735 6.50773C17.0781 6.46791 16.4205 6.57366 15.8092 6.81743C15.7095 6.86052 15.6022 6.88319 15.4937 6.88411C15.3851 6.88503 15.2774 6.86417 15.1771 6.82278C15.0767 6.78138 14.9856 6.72029 14.9092 6.6431C14.8329 6.56592 14.7727 6.47421 14.7324 6.37339C14.6921 6.27258 14.6724 6.1647 14.6745 6.05614C14.6765 5.94758 14.7003 5.84053 14.7445 5.74133C14.7886 5.64213 14.8522 5.55278 14.9315 5.47856C15.0107 5.40434 15.104 5.34677 15.2059 5.30923C16.6049 4.7513 18.1609 4.73122 19.5739 5.25287C20.9868 5.77452 22.1565 6.80094 22.8572 8.13411C23.558 9.46728 23.7403 11.0127 23.3688 12.4723C22.9973 13.932 22.0985 15.2023 20.8457 16.0383C22.8155 16.7643 24.4978 18.1078 25.6415 19.8682C25.7592 20.0487 25.8003 20.2685 25.756 20.4794C25.7116 20.6902 25.5853 20.8748 25.4048 20.9925Z" fill="#4F46E5"/>
</g>
<defs>
<clipPath id="clip0_9801_761">
<rect width="26" height="26" fill="white"/>
</clipPath>
</defs>
</svg>
