<svg width="45" height="45" viewBox="0 0 45 45" fill="none" xmlns="http://www.w3.org/2000/svg">
<rect width="45" height="45" rx="10" fill="#4F46E5"/>
<path d="M21.7645 25.1658L18.9391 22.2429M21.7645 25.1658C23.0801 24.6482 24.3422 23.9954 25.5318 23.2172M21.7645 25.1658V30.0371C21.7645 30.0371 24.6182 29.5013 25.5318 28.0886C26.5489 26.5103 25.5318 23.2172 25.5318 23.2172M18.9391 22.2429C19.4403 20.8979 20.0714 19.6086 20.8227 18.3946C21.9201 16.5795 23.4481 15.085 25.2615 14.0533C27.0748 13.0216 29.1132 12.487 31.1826 12.5002C31.1826 15.1503 30.448 19.8073 25.5318 23.2172M18.9391 22.2429L14.2301 22.2429C14.2301 22.2429 14.7481 19.2909 16.1137 18.3459C17.6394 17.2937 20.8227 18.3459 20.8227 18.3459M14.701 26.6272C13.2883 27.8547 12.8174 31.4985 12.8174 31.4985C12.8174 31.4985 16.3397 31.0114 17.5264 29.55C18.1951 28.7316 18.1857 27.4748 17.4417 26.7149C17.0756 26.3534 16.5934 26.1445 16.0875 26.1284C15.5817 26.1122 15.088 26.2898 14.701 26.6272Z" stroke="#F5F5F5" stroke-width="2" stroke-linecap="round" stroke-linejoin="round"/>
</svg>
