<svg width="26" height="26" viewBox="0 0 26 26" fill="none" xmlns="http://www.w3.org/2000/svg">
<path d="M16.6562 7.31295C15.961 7.31253 15.2689 7.40579 14.5986 7.59022C14.334 7.15848 14.0125 6.76427 13.6429 6.41819L14.6087 5.03998C14.6699 4.95256 14.7133 4.85393 14.7364 4.74973C14.7595 4.64553 14.7619 4.5378 14.7434 4.43269C14.7248 4.32759 14.6858 4.22716 14.6284 4.13714C14.5711 4.04713 14.4966 3.96929 14.4092 3.90807C14.3217 3.84685 14.2231 3.80345 14.1189 3.78035C14.0147 3.75725 13.907 3.7549 13.8019 3.77343C13.6968 3.79196 13.5963 3.83101 13.5063 3.88836C13.4163 3.9457 13.3385 4.02021 13.2772 4.10764L12.3114 5.48483C11.5171 5.0838 10.6397 4.87506 9.74997 4.87545C9.69107 4.87545 9.63216 4.87545 9.57325 4.87545L9.27974 3.221C9.26433 3.1132 9.22742 3.00959 9.17118 2.91634C9.11494 2.82309 9.04053 2.74209 8.95237 2.67816C8.86421 2.61424 8.7641 2.56869 8.65799 2.54422C8.55187 2.51975 8.44192 2.51686 8.33467 2.53572C8.22742 2.55458 8.12505 2.59481 8.03366 2.65402C7.94226 2.71323 7.8637 2.7902 7.80264 2.88037C7.74158 2.97054 7.69927 3.07206 7.67823 3.17891C7.65718 3.28575 7.65783 3.39574 7.68013 3.50233L7.97263 5.16186C7.07152 5.4599 6.25914 5.97833 5.60927 6.67006L4.22599 5.70217C4.13863 5.63945 4.03969 5.59469 3.93491 5.5705C3.83012 5.5463 3.72157 5.54315 3.61556 5.56122C3.50955 5.5793 3.40818 5.61823 3.31733 5.67578C3.22648 5.73333 3.14795 5.80834 3.08631 5.89647C3.02467 5.98459 2.98114 6.08408 2.95824 6.18915C2.93534 6.29423 2.93353 6.40281 2.95291 6.50859C2.97229 6.61437 3.01248 6.71525 3.07114 6.80539C3.12981 6.89552 3.20578 6.97311 3.29466 7.03366L4.67185 8.00053C4.2694 8.79463 4.06058 9.6727 4.06247 10.563C4.06247 10.6208 4.06247 10.6797 4.06247 10.7376L2.40802 11.0301C2.20776 11.0652 2.02794 11.1741 1.90404 11.3353C1.78014 11.4965 1.72117 11.6983 1.73877 11.9008C1.75637 12.1033 1.84926 12.2919 1.99911 12.4293C2.14896 12.5667 2.34487 12.6429 2.54818 12.643C2.59549 12.6429 2.64272 12.6388 2.68935 12.6308L4.34685 12.3383C4.49248 12.7817 4.69238 13.2053 4.942 13.5997C4.16484 14.3215 3.62305 15.2607 3.38718 16.2948C3.15132 17.329 3.23232 18.4102 3.61963 19.3976C4.00694 20.3851 4.68262 21.233 5.55866 21.8311C6.43471 22.4291 7.47053 22.7495 8.53122 22.7505H16.6562C18.7034 22.7505 20.6667 21.9372 22.1142 20.4897C23.5618 19.0421 24.375 17.0788 24.375 15.0317C24.375 12.9846 23.5618 11.0213 22.1142 9.57372C20.6667 8.12618 18.7034 7.31295 16.6562 7.31295ZM5.68747 10.563C5.68796 9.70257 5.96159 8.86456 6.46894 8.16968C6.97628 7.47481 7.69115 6.95895 8.5105 6.69645C9.32986 6.43394 10.2114 6.43835 11.0281 6.70904C11.8448 6.97973 12.5544 7.50272 13.0548 8.20264C11.3974 9.07486 10.1122 10.5181 9.43716 12.2651C8.36907 12.0808 7.27013 12.2286 6.28872 12.6887C5.8958 12.0492 5.68769 11.3135 5.68747 10.563ZM16.6562 21.1255H8.53122C8.03115 21.1245 7.53659 21.021 7.07811 20.8214C6.61963 20.6217 6.20698 20.3301 5.86568 19.9646C5.52438 19.5991 5.26168 19.1675 5.09382 18.6965C4.92597 18.2254 4.85653 17.7249 4.8898 17.226C4.92307 16.727 5.05834 16.2402 5.28724 15.7956C5.51615 15.351 5.83383 14.958 6.22063 14.6411C6.60743 14.3242 7.05514 14.0899 7.53607 13.9529C8.017 13.8159 8.52093 13.779 9.01669 13.8444C8.97911 14.0851 8.95271 14.3309 8.93849 14.5787C8.9261 14.7942 8.99982 15.0058 9.14343 15.1669C9.28704 15.3281 9.48878 15.4256 9.70427 15.438C9.91976 15.4503 10.1313 15.3766 10.2925 15.233C10.4536 15.0894 10.5511 14.8877 10.5635 14.6722C10.5863 14.2669 10.6503 13.865 10.7544 13.4727C10.7544 13.4565 10.7636 13.4402 10.7666 13.424C11.0652 12.3265 11.6648 11.3344 12.4974 10.5597C13.3301 9.78501 14.3628 9.25852 15.4789 9.03971C16.595 8.82091 17.7501 8.9185 18.8136 9.32146C19.8772 9.72443 20.8069 10.4167 21.4978 11.3202C22.1887 12.2236 22.6133 13.3022 22.7235 14.4342C22.8338 15.5662 22.6254 16.7065 22.1218 17.7263C21.6183 18.7461 20.8397 19.6048 19.8739 20.2054C18.9081 20.8061 17.7936 21.1247 16.6562 21.1255Z" fill="#525252"/>
</svg>
