<svg width="16" height="16" viewBox="0 0 16 16" fill="none" xmlns="http://www.w3.org/2000/svg">
<g clip-path="url(#clip0_9801_3265)">
<path d="M7.3284 9.86957C7.99853 9.42344 8.50729 8.77349 8.77946 8.01585C9.05164 7.25821 9.07276 6.43309 8.83972 5.66251C8.60668 4.89193 8.13184 4.2168 7.48542 3.73696C6.839 3.25712 6.05532 2.99805 5.25028 2.99805C4.44523 2.99805 3.66155 3.25712 3.01513 3.73696C2.36871 4.2168 1.89388 4.89193 1.66083 5.66251C1.42779 6.43309 1.44892 7.25821 1.72109 8.01585C1.99326 8.77349 2.50202 9.42344 3.17215 9.86957C1.95996 10.3163 0.924716 11.1431 0.2209 12.2264C0.18391 12.2814 0.158217 12.3432 0.145313 12.4082C0.13241 12.4732 0.132555 12.5401 0.145738 12.605C0.158922 12.67 0.184882 12.7316 0.222109 12.7865C0.259336 12.8413 0.307088 12.8882 0.362589 12.9244C0.41809 12.9606 0.480233 12.9854 0.545405 12.9973C0.610578 13.0093 0.67748 13.0082 0.742223 12.9941C0.806966 12.98 0.868258 12.9531 0.922537 12.9151C0.976815 12.8771 1.023 12.8287 1.0584 12.7727C1.51239 12.0744 2.13362 11.5006 2.86567 11.1034C3.59772 10.7062 4.4174 10.4982 5.25028 10.4982C6.08315 10.4982 6.90283 10.7062 7.63488 11.1034C8.36693 11.5006 8.98816 12.0744 9.44215 12.7727C9.51549 12.8817 9.62877 12.9574 9.75751 12.9836C9.88626 13.0097 10.0201 12.9841 10.1301 12.9124C10.2402 12.8406 10.3175 12.7284 10.3455 12.6001C10.3735 12.4717 10.3498 12.3375 10.2797 12.2264C9.57583 11.1431 8.54059 10.3163 7.3284 9.86957ZM2.50028 6.74957C2.50028 6.20567 2.66156 5.67399 2.96373 5.22175C3.26591 4.76952 3.6954 4.41704 4.1979 4.2089C4.70039 4.00076 5.25333 3.9463 5.78677 4.05241C6.32022 4.15852 6.81022 4.42043 7.19482 4.80502C7.57941 5.18962 7.84133 5.67962 7.94743 6.21307C8.05354 6.74652 7.99908 7.29945 7.79094 7.80195C7.5828 8.30444 7.23033 8.73394 6.77809 9.03611C6.32586 9.33828 5.79417 9.49957 5.25028 9.49957C4.52118 9.49874 3.82219 9.20874 3.30664 8.6932C2.7911 8.17765 2.5011 7.47866 2.50028 6.74957ZM15.634 12.9183C15.523 12.9907 15.3877 13.0161 15.2579 12.9888C15.1282 12.9615 15.0146 12.8837 14.9422 12.7727C14.4887 12.074 13.8676 11.5 13.1354 11.1029C12.4032 10.7059 11.5832 10.4985 10.7503 10.4996C10.6177 10.4996 10.4905 10.4469 10.3967 10.3531C10.303 10.2594 10.2503 10.1322 10.2503 9.99957C10.2503 9.86696 10.303 9.73978 10.3967 9.64601C10.4905 9.55225 10.6177 9.49957 10.7503 9.49957C11.1553 9.49919 11.5552 9.40936 11.9214 9.23651C12.2876 9.06367 12.6112 8.81206 12.8689 8.49968C13.1266 8.18729 13.3122 7.82184 13.4123 7.42943C13.5124 7.03702 13.5247 6.62734 13.4481 6.22966C13.3715 5.83198 13.2081 5.45613 12.9694 5.12894C12.7307 4.80176 12.4228 4.53132 12.0675 4.33696C11.7122 4.1426 11.3183 4.02912 10.9141 4.00461C10.5099 3.9801 10.1052 4.04518 9.72903 4.19519C9.66769 4.22171 9.60167 4.23566 9.53485 4.23622C9.46803 4.23679 9.40178 4.22395 9.34001 4.19848C9.27823 4.17301 9.22219 4.13541 9.1752 4.08791C9.1282 4.04041 9.0912 3.98398 9.06639 3.92194C9.04157 3.8599 9.02944 3.79351 9.03071 3.72671C9.03199 3.6599 9.04664 3.59402 9.07381 3.53298C9.10097 3.47193 9.14009 3.41694 9.18887 3.37127C9.23764 3.3256 9.29508 3.29017 9.35778 3.26707C10.2187 2.92373 11.1763 2.91137 12.0457 3.23239C12.9152 3.5534 13.635 4.18504 14.0663 5.00545C14.4975 5.82587 14.6097 6.77692 14.3811 7.67514C14.1525 8.57336 13.5994 9.35511 12.8284 9.86957C14.0406 10.3163 15.0758 11.1431 15.7797 12.2264C15.8521 12.3375 15.8774 12.4728 15.8501 12.6025C15.8228 12.7323 15.7451 12.8459 15.634 12.9183Z" fill="#525252"/>
</g>
<defs>
<clipPath id="clip0_9801_3265">
<rect width="16" height="16" fill="white"/>
</clipPath>
</defs>
</svg>
