<svg width="18" height="18" viewBox="0 0 18 18" fill="none" xmlns="http://www.w3.org/2000/svg">
<path d="M11.9023 5.51174C12.044 5.81362 12.3268 6.025 12.6565 6.07537L15.9454 6.57782C16.75 6.70075 17.0786 7.68212 16.5102 8.26471L14.0684 10.7673C13.8467 10.9945 13.7461 11.3134 13.7972 11.6267L14.365 15.1081C14.4993 15.9319 13.6248 16.5481 12.8943 16.1443L10.0454 14.5698C9.74435 14.4034 9.37893 14.4034 9.07789 14.5698L6.23007 16.144C5.49951 16.5479 4.62495 15.9318 4.75932 15.1079L5.32707 11.6267C5.37816 11.3134 5.27748 10.9945 5.05578 10.7673L2.61352 8.26479C2.04499 7.68223 2.37353 6.70073 3.1782 6.57782L6.46763 6.07537C6.79735 6.02501 7.08026 5.81356 7.22194 5.5116L8.65651 2.45414C9.01634 1.68722 10.1071 1.68715 10.467 2.454L11.9023 5.51174Z" fill="#F4A316"/>
</svg>
